<svg width="21" height="20" viewBox="0 0 21 20" fill="none" xmlns="http://www.w3.org/2000/svg">
<path fill-rule="evenodd" clip-rule="evenodd" d="M15.8871 0.0289178C15.3646 0.122072 14.8427 0.413902 14.4508 0.832176C14.0392 1.27137 13.7729 1.84037 13.6701 2.50048C13.6188 2.82933 13.6087 2.85177 13.511 2.85177C13.337 2.85177 12.9304 3.10887 12.6904 3.37073C12.3984 3.6895 12.2722 3.97896 12.2474 4.38728C12.2311 4.65585 12.2369 4.68034 12.3394 4.77628L12.4488 4.87865L13.8479 4.89097C14.6175 4.89777 15.3091 4.89195 15.3848 4.87803C15.5948 4.83946 15.7181 4.69242 15.7175 4.48126C15.717 4.2651 15.6355 3.95017 15.5237 3.73213C15.3333 3.36062 14.893 2.98382 14.5202 2.87347C14.3229 2.81504 14.32 2.7978 14.4309 2.33993C14.691 1.26642 15.569 0.602545 16.5984 0.701064C17.7575 0.811989 18.6652 1.66459 18.8287 2.7962C18.8531 2.96499 18.8696 4.55119 18.8701 6.77245L18.871 10.4679H13.6131H8.35526L8.29052 10.2779C8.10204 9.72477 7.66485 9.31059 7.08308 9.13399C6.97903 9.10242 6.84042 9.07642 6.77507 9.07617C6.68875 9.07584 6.5963 9.01909 6.43759 8.86898C6.31736 8.75531 6.09449 8.60327 5.94229 8.53117C5.68559 8.40959 5.63437 8.40009 5.23558 8.40009C4.83856 8.40009 4.78488 8.40992 4.53445 8.52859C4.22976 8.67297 3.97626 8.8845 3.79867 9.14263L3.67898 9.31657L3.45185 9.21261C2.8236 8.92499 1.97739 9.11413 1.49933 9.64898C1.33341 9.83455 1.10001 10.2681 1.09997 10.3907C1.09993 10.438 1.04748 10.464 0.915548 10.482C0.0667154 10.5984 -0.301399 11.6237 0.287666 12.2307C0.526346 12.4766 0.7267 12.5543 1.12516 12.5553L1.45744 12.5562L1.95212 14.5299C2.52878 16.8304 2.56764 16.9321 3.06093 17.4305C3.51294 17.8872 3.97335 18.0921 4.68239 18.152C4.85154 18.1663 4.9899 18.1848 4.9899 18.1931C4.9899 18.2015 4.88856 18.4103 4.76469 18.6573C4.50185 19.1815 4.48683 19.3018 4.66548 19.4522C4.95162 19.6929 5.10767 19.567 5.50403 18.7756L5.80938 18.166L10.6511 18.1661L15.4928 18.1663L15.8127 18.8015C16.1705 19.5121 16.246 19.5939 16.4886 19.534C16.6062 19.5049 16.6562 19.4622 16.716 19.3399L16.7926 19.1831L16.5426 18.6729C16.3764 18.3338 16.3096 18.1577 16.3432 18.1474C16.3709 18.1389 16.4822 18.1214 16.5904 18.1085C17.0671 18.0516 17.6577 17.7189 18.0276 17.2988C18.3888 16.8888 18.4634 16.6766 19.0015 14.5299L19.4962 12.5562L19.8285 12.5553C20.0655 12.5547 20.2097 12.5322 20.3315 12.4769C20.5523 12.3767 20.8186 12.1008 20.88 11.9088C20.9065 11.8257 20.9444 11.7403 20.9642 11.7189C21.0051 11.6747 21.0145 11.2179 20.9737 11.2587C20.9592 11.2733 20.9065 11.1981 20.8568 11.0915C20.672 10.696 20.3711 10.5054 19.8857 10.4764L19.5698 10.4576L19.5565 6.52157C19.5418 2.17868 19.558 2.45421 19.2815 1.84443C18.9069 1.01832 18.1404 0.355348 17.274 0.108191C16.9212 0.00754336 16.2289 -0.0320115 15.8871 0.0289178ZM12.3266 5.68997C12.2592 5.76175 12.2375 5.83554 12.2375 5.99376C12.2375 6.26163 12.2625 6.32195 12.4043 6.3952C12.5655 6.47857 12.666 6.47018 12.7894 6.36298C12.9035 6.26389 12.9614 6.03888 12.9177 5.86473C12.8521 5.60337 12.5045 5.50063 12.3266 5.68997ZM13.7303 5.69574C13.6484 5.7776 13.63 5.8364 13.631 6.01308C13.6324 6.24157 13.6748 6.32932 13.8215 6.40749C13.9657 6.48426 14.0784 6.46317 14.2061 6.33542C14.3438 6.1978 14.3685 5.96035 14.2659 5.76196C14.1631 5.56308 13.8959 5.53003 13.7303 5.69574ZM15.1225 5.69574C15.0406 5.7776 15.0222 5.8364 15.0232 6.01308C15.0246 6.24157 15.067 6.32932 15.2137 6.40749C15.3579 6.48426 15.4706 6.46317 15.5983 6.33542C15.6995 6.23428 15.718 6.18322 15.718 6.00596C15.718 5.74021 15.5951 5.59522 15.37 5.59522C15.2685 5.59522 15.1918 5.62634 15.1225 5.69574ZM12.4218 6.99377C12.2657 7.07914 12.2375 7.15792 12.2375 7.50904C12.2375 7.82647 12.2454 7.85849 12.3459 7.95164C12.4838 8.07944 12.6509 8.08005 12.7983 7.95324C12.9077 7.85906 12.9132 7.8376 12.9132 7.49926C12.9132 7.16091 12.9077 7.13946 12.7983 7.04528C12.6747 6.93902 12.5525 6.92227 12.4218 6.99377ZM13.814 6.99594C13.6615 7.08336 13.6324 7.16431 13.6324 7.49926C13.6324 7.83912 13.6625 7.9197 13.8215 8.00442C13.9657 8.0812 14.0784 8.06011 14.2061 7.93236C14.3176 7.8209 14.3258 7.79105 14.3258 7.49926C14.3258 7.20747 14.3176 7.17762 14.2061 7.06616C14.0805 6.9405 13.9511 6.91732 13.814 6.99594ZM15.1479 7.05248C15.0259 7.15514 15.022 7.1691 15.0232 7.49267C15.0246 7.83896 15.0546 7.91966 15.2137 8.00442C15.3579 8.0812 15.4706 8.06011 15.5983 7.93236C15.7098 7.8209 15.718 7.79105 15.718 7.49926C15.718 7.20747 15.7098 7.17762 15.5983 7.06616C15.4499 6.91773 15.313 6.91355 15.1479 7.05248ZM12.4218 8.5907C12.2781 8.66932 12.2375 8.75813 12.2375 8.99452C12.2375 9.1812 12.2551 9.24151 12.3297 9.31059C12.5054 9.47348 12.7709 9.43536 12.876 9.23214C13.069 8.85886 12.7515 8.41037 12.4218 8.5907ZM13.814 8.59287C13.6738 8.67325 13.6324 8.76121 13.631 8.9813C13.629 9.30945 13.804 9.46558 14.0896 9.39052C14.2294 9.35383 14.3258 9.17477 14.3258 8.95177C14.3258 8.65724 14.0451 8.46037 13.814 8.59287ZM15.1479 8.64942C15.037 8.7427 15.0219 8.7809 15.0219 8.96787C15.0219 9.2113 15.0913 9.33569 15.2596 9.39437C15.4008 9.44359 15.6076 9.36927 15.6738 9.24553C15.6982 9.20016 15.718 9.07744 15.718 8.9729C15.718 8.81738 15.6962 8.761 15.5983 8.6631C15.4499 8.51466 15.313 8.51049 15.1479 8.64942ZM0.895197 11.2169C0.672773 11.3297 0.645993 11.6232 0.84389 11.7789C0.946258 11.8594 1.0345 11.8601 10.48 11.8601H20.0129L20.1257 11.7631C20.2717 11.6375 20.2818 11.4101 20.1474 11.2757L20.0562 11.1845L10.5268 11.1747C2.89697 11.1669 0.977173 11.1753 0.895197 11.2169ZM0.00705556 11.5121C0.00726029 11.6472 0.0149174 11.6975 0.0240486 11.6239C0.0331388 11.5504 0.032975 11.4398 0.0236391 11.3783C0.0142622 11.3167 0.00680987 11.3769 0.00705556 11.5121Z" fill="#455467"/>
</svg>
