<svg width="21" height="21" viewBox="0 0 21 21" fill="none" xmlns="http://www.w3.org/2000/svg">
<path fill-rule="evenodd" clip-rule="evenodd" d="M0.911273 0.0296612C0.681333 0.126512 0.691938 -0.0657482 0.691938 4.00645V7.75172L0.792454 7.85578L0.89293 7.95988H5.58471H10.2765L10.377 7.85578L10.4775 7.75172V3.99937V0.247067L10.3787 0.128081L10.2798 0.00909515L5.63945 0.000911145C3.07527 -0.0036261 0.95975 0.00922235 0.911273 0.0296612ZM1.68646 1.0184C1.44866 1.25756 1.42074 1.30306 1.42074 1.4516C1.42074 1.5786 1.44624 1.64026 1.52948 1.71442C1.72241 1.88629 1.90633 1.82306 2.21836 1.47755C2.38156 1.29691 2.41157 1.2375 2.41157 1.09528C2.41157 0.96391 2.38787 0.90764 2.30369 0.839072C2.11207 0.68294 1.98269 0.72051 1.68646 1.0184ZM2.767 2.0551C2.07133 2.77224 1.47658 3.42013 1.44534 3.4948C1.34585 3.73261 1.51151 3.97389 1.77432 3.97389C1.88041 3.97389 2.0708 3.79405 3.19675 2.63001C4.07642 1.72057 4.50461 1.24865 4.52124 1.17016C4.54932 1.03774 4.45597 0.817828 4.35455 0.777501C4.31811 0.763042 4.23062 0.751168 4.16007 0.751168C4.04666 0.751168 3.8862 0.901364 2.767 2.0551ZM13.1029 6.17801C12.9025 6.22843 12.7625 6.34899 12.6577 6.56139C12.5667 6.74581 12.5656 6.76921 12.5656 8.43561V10.1231L9.87654 10.1122L7.18745 10.1013L6.96021 9.39102L6.73293 8.68075H5.58471H4.43648L4.20924 9.39102L3.98201 10.1013L2.08775 10.1225L0.193449 10.1437L0.0946925 10.2627C-0.0315369 10.4147 -0.0315778 10.5935 0.0946515 10.7456C0.188822 10.8591 0.212569 10.8652 0.606447 10.8792L1.01949 10.8937V12.1407V13.3876H3.82413H6.62877V12.1367V10.8858H9.59719H12.5656V11.2211V11.5565L11.5727 11.5724C10.4796 11.5899 10.4206 11.602 10.1302 11.8661C10.0438 11.9446 9.93022 12.1044 9.87769 12.2212C9.78487 12.4276 9.78221 12.4665 9.78184 13.6229L9.78143 14.8123L9.63772 14.8661C9.43882 14.9406 9.35071 15.1217 9.41507 15.3237C9.49507 15.5748 9.58736 15.5926 10.8037 15.5926H11.8696V15.211V14.8294H11.1735H10.4775V13.7241C10.4775 12.6016 10.4896 12.4996 10.6377 12.3819C10.6843 12.3449 10.9665 12.3298 11.6341 12.3289L12.5656 12.3275V13.9615V15.5954L14.7694 15.5834L16.9731 15.5714L17.1473 15.452C17.4822 15.2224 17.4769 15.2623 17.4779 12.9318L17.4788 10.8858H18.6867H19.8945V15.7856C19.8945 21.1718 19.8805 20.8778 20.1424 20.9724C20.3262 21.0388 20.5239 20.9457 20.585 20.7642C20.6186 20.6642 20.6315 19.2801 20.6315 15.7549V10.8836L20.729 10.8453C20.8594 10.7939 21 10.5824 21 10.4375C21 10.3731 20.9889 10.3319 20.9753 10.346C20.9618 10.36 20.9081 10.3203 20.8561 10.2576L20.7615 10.1437L19.1202 10.1317L17.4788 10.1197L17.4779 8.43553C17.4769 6.51174 17.4754 6.50207 17.1473 6.27711L16.9731 6.1577L15.1072 6.15045C14.0809 6.14647 13.1789 6.15885 13.1029 6.17801ZM5.00965 7.00388C4.87306 7.1453 4.87397 7.35965 5.01174 7.49365C5.09838 7.57799 5.1679 7.59639 5.45971 7.61225C6.05974 7.64486 6.26028 7.55013 6.26028 7.23409C6.26028 7.11332 6.23456 7.05459 6.15239 6.98768C6.05756 6.91042 5.98796 6.89978 5.57734 6.89978C5.13588 6.89978 5.1046 6.9055 5.00965 7.00388ZM0.00539433 10.5041C0.00539433 10.5858 0.0138287 10.6191 0.0241056 10.5783C0.0344234 10.5375 0.0344234 10.4708 0.0241056 10.4299C0.0138287 10.3891 0.00539433 10.4225 0.00539433 10.5041ZM3.27176 11.3453C3.14041 11.4813 3.12096 11.5823 3.19401 11.7484C3.2632 11.9057 3.39971 11.9459 3.8647 11.9459C4.25355 11.9459 4.30018 11.9372 4.40324 11.8454C4.54912 11.7154 4.55923 11.4799 4.42498 11.3407C4.34329 11.256 4.2852 11.2447 3.86442 11.232L3.39496 11.2177L3.27176 11.3453ZM1.03812 14.1618C1.02723 14.1911 1.02321 14.8447 1.02915 15.6142L1.03996 17.0132L3.83436 17.0241L6.62877 17.035V15.5717V14.1085H3.84333C1.64371 14.1085 1.05372 14.1197 1.03812 14.1618ZM3.32724 14.5397C3.2309 14.588 3.14856 14.7434 3.14856 14.877C3.14856 14.9243 3.204 15.0205 3.27176 15.0907L3.39496 15.2183L3.86442 15.204C4.2852 15.1913 4.34329 15.18 4.42498 15.0953C4.55923 14.9561 4.54912 14.7206 4.40324 14.5906C4.2992 14.498 4.25629 14.4903 3.85254 14.493C3.61171 14.4946 3.37534 14.5156 3.32724 14.5397ZM14.3262 17.734V19.197H13.3585C12.2681 19.197 12.1571 19.2168 11.8911 19.4593C11.6214 19.7051 11.5286 19.9402 11.5247 20.3867C11.522 20.6995 11.5341 20.7709 11.6034 20.8508C11.7246 20.9906 11.8631 21.0334 12.0018 20.9739C12.1663 20.9034 12.2381 20.7327 12.2381 20.4123C12.2381 20.2068 12.2574 20.1145 12.3163 20.0392C12.3939 19.9398 12.4015 19.939 13.3603 19.9263L14.3262 19.9135V20.3535C14.3262 20.7693 14.3319 20.7991 14.4296 20.8943C14.5782 21.0388 14.7976 21.0317 14.9252 20.8781C15.0132 20.7721 15.0222 20.7221 15.0222 20.3395V19.9179H15.9211C16.4926 19.9179 16.8562 19.935 16.9197 19.9649C17.0583 20.0304 17.1103 20.1736 17.1103 20.4899C17.1103 20.7142 17.1272 20.7815 17.2074 20.8781C17.3349 21.0317 17.5543 21.0388 17.7029 20.8943C17.799 20.8008 17.8063 20.7661 17.8055 20.4087C17.8041 19.8228 17.6342 19.5044 17.2127 19.298C17.0151 19.2013 16.9735 19.1978 16.0151 19.1974L15.0222 19.197V17.734V16.2711H14.6742H14.3262V17.734ZM1.03668 17.77C1.02506 17.8014 1.02104 18.3257 1.02776 18.9352L1.03996 20.0433L1.1535 20.1608L1.26703 20.2783H3.8491H6.43114L6.52997 20.1593L6.62877 20.0403V18.8766V17.7128H3.84333C1.5459 17.7128 1.05417 17.7229 1.03668 17.77ZM3.36789 18.1347C3.14442 18.2328 3.08153 18.5378 3.24907 18.7113C3.34423 18.8098 3.37477 18.8154 3.8254 18.8154C4.30096 18.8154 4.30137 18.8153 4.42576 18.6864C4.53037 18.5781 4.54605 18.5359 4.52398 18.4215C4.47366 18.161 4.38563 18.1168 3.89476 18.1059C3.65323 18.1005 3.41617 18.1135 3.36789 18.1347Z" fill="#455467"/>
</svg>
