<svg width="21" height="23" viewBox="0 0 21 23" fill="none" xmlns="http://www.w3.org/2000/svg">
<path fill-rule="evenodd" clip-rule="evenodd" d="M4.98438 0.107851C4.90992 0.18227 4.87653 0.264509 4.87653 0.373414C4.87653 0.482319 4.90992 0.564558 4.98438 0.638977L5.09219 0.746827H6.67573H8.25922V1.69134V2.63586H10.4997H12.7402V1.69134V0.746827H13.8604H14.9807V1.15886V1.57084L14.8474 1.62606C14.6558 1.70545 14.3822 2.03603 14.2978 2.29039C14.2412 2.46053 14.2285 2.63415 14.2405 3.07359C14.2555 3.62787 14.2583 3.64131 14.3907 3.80698C14.6242 4.09898 14.7417 4.13466 15.4236 4.1202C16.0047 4.1079 16.0246 4.10426 16.1862 3.98085C16.4466 3.78198 16.5161 3.57739 16.5173 3.00629C16.5179 2.70251 16.4939 2.438 16.4534 2.30146C16.3777 2.04657 16.1549 1.76805 15.9298 1.64684L15.7714 1.56153V1.1542C15.7714 0.816063 15.783 0.746827 15.8393 0.746827C15.8766 0.746827 15.9557 0.698284 16.015 0.638977C16.1618 0.492291 16.1618 0.254536 16.015 0.107851L15.9072 0H10.4997H5.09219L4.98438 0.107851ZM15.2179 2.30357C15.1429 2.33599 15.0688 2.39595 15.0532 2.4369C15.0374 2.4778 15.0246 2.70734 15.0246 2.94698V3.38269H15.376H15.7275V2.92906C15.7275 2.51474 15.7189 2.46761 15.6286 2.38497C15.4898 2.25792 15.3756 2.2353 15.2179 2.30357ZM8.26642 4.10092L8.28119 4.81915L8.48726 5.23214C8.95487 6.16919 9.96673 7.11683 10.4997 7.11683C11.0349 7.11683 12.0524 6.1619 12.5126 5.22779L12.7182 4.81045L12.733 4.09657L12.7477 3.38269H10.4997H8.25166L8.26642 4.10092ZM9.3575 7.79385C9.3575 8.15672 9.36004 8.16555 9.50027 8.2839C9.78767 8.52657 10.0426 8.6096 10.4997 8.6096C10.9568 8.6096 11.2117 8.52657 11.4991 8.2839C11.6394 8.16555 11.6419 8.15672 11.6419 7.79385C11.6419 7.59062 11.6327 7.42434 11.6215 7.42434C11.6102 7.42434 11.5085 7.48304 11.3955 7.55473C10.8079 7.92731 10.1915 7.92731 9.60395 7.55473C9.49087 7.48304 9.38917 7.42434 9.37792 7.42434C9.36668 7.42434 9.3575 7.59062 9.3575 7.79385ZM7.787 8.67836C7.12242 8.85733 6.60719 9.37172 6.43147 10.0317C6.38837 10.1934 6.37106 10.5615 6.37071 11.3232L6.37018 12.3886H10.4997H14.6292L14.6287 11.3232C14.6281 10.1662 14.6019 9.97858 14.3855 9.58087C14.242 9.3172 13.8856 8.96628 13.6279 8.83479C13.3418 8.68881 12.9731 8.61048 12.5724 8.61048H12.2033L11.9665 8.82697C11.554 9.20403 11.1342 9.35516 10.4997 9.35516C9.86521 9.35516 9.44545 9.20403 9.03293 8.82697L8.79606 8.61048L8.40683 8.61338C8.19275 8.61496 7.91383 8.64422 7.787 8.67836ZM0.234294 13.1555C-0.0297755 13.2703 -0.0785828 13.5466 0.128596 13.7538L0.257006 13.8822H10.4997H20.7424L20.8708 13.7538C21.0815 13.5431 21.0286 13.2677 20.7555 13.1536C20.5352 13.0616 0.44591 13.0634 0.234294 13.1555ZM2.24067 18.4257V22.2224L2.35441 22.3575C2.47601 22.502 2.65059 22.535 2.81836 22.4452C3.03283 22.3305 3.03143 22.3575 3.03143 18.3646V14.629H2.63605H2.24067V18.4257ZM3.74399 15.1892L3.75629 15.7493H10.4997H17.2431L17.2554 15.1892L17.2677 14.629H10.4997H3.73169L3.74399 15.1892ZM17.968 18.3646C17.968 22.3575 17.9666 22.3305 18.181 22.4452C18.3488 22.535 18.5234 22.502 18.645 22.3575L18.7587 22.2224V18.4257V14.629H18.3634H17.968V18.3646ZM3.73432 16.8695V17.2649H10.4997H17.2651V16.8695V16.4741H10.4997H3.73432V16.8695ZM3.76376 17.9969C3.74755 18.0131 3.73432 18.4382 3.73432 18.9416V19.8568H10.5006H17.2668L17.255 18.9233L17.2431 17.9898L10.5182 17.9786C6.81942 17.9725 3.77992 17.9808 3.76376 17.9969Z" fill="#455467"/>
</svg>
